<?xml version="1.0" encoding="UTF-8"?>
<svg version="1.1" xmlns="http://www.w3.org/2000/svg" width="512" height="512">
<path d="M0 0 C1.2214614 -0.00445784 2.44292281 -0.00891569 3.70139819 -0.01350862 C5.06402513 -0.01341932 6.42665207 -0.01322946 7.78927898 -0.01294994 C9.23127313 -0.0162486 10.67326635 -0.01997417 12.1152584 -0.02409142 C16.0874489 -0.03411917 20.05962429 -0.03782945 24.03182566 -0.04048073 C28.31209782 -0.04438142 32.59235798 -0.05395982 36.87262249 -0.0626936 C47.21334819 -0.08246327 57.55407488 -0.09252423 67.89481476 -0.10142139 C72.76195705 -0.10580291 77.62909824 -0.11117002 82.49623966 -0.11641026 C98.67084337 -0.133422 114.8454464 -0.14791731 131.02005768 -0.155159 C135.21817113 -0.15706895 139.41628457 -0.15898928 143.614398 -0.16094494 C144.65784281 -0.16142868 145.70128761 -0.16191242 146.77635195 -0.16241082 C163.68857487 -0.17071541 180.60072716 -0.19605981 197.51291922 -0.22852562 C214.86777505 -0.26157023 232.22259494 -0.27960535 249.5774824 -0.28280324 C259.32512586 -0.2849706 269.07266628 -0.29375237 278.82027912 -0.31926441 C287.11971872 -0.34093584 295.41903025 -0.34903936 303.71849493 -0.33929763 C307.95419156 -0.33474275 312.18962376 -0.33670784 316.42528439 -0.35605907 C320.30226609 -0.37361898 324.17878904 -0.37275192 328.05577513 -0.35716178 C329.45888403 -0.35477476 330.8620241 -0.3591658 332.2650852 -0.37099043 C345.29737082 -0.474027 345.29737082 -0.474027 350.18153667 4.13422108 C352.53396014 7.34207126 352.64995757 10.23071359 352.18153667 14.13422108 C350.4662265 17.4377814 349.27054742 19.57879227 345.91506428 21.29019135 C342.84696847 22.23752551 340.34258731 22.38605944 337.13259506 22.38869667 C335.91063496 22.39452886 334.68867485 22.40036106 333.42968565 22.40636998 C332.07687299 22.40273693 330.72406084 22.39891257 329.3712492 22.39491749 C327.93165273 22.39793808 326.49205787 22.40182709 325.05246586 22.40651006 C321.09616941 22.41681069 317.13996337 22.41460299 313.18365943 22.41032946 C308.91705236 22.40786599 304.65046728 22.41687166 300.38386822 22.42436695 C292.02515603 22.43712636 283.66647594 22.43890611 275.30775566 22.43656669 C268.51492053 22.43478482 261.72209517 22.43653034 254.92926121 22.44079113 C253.47997428 22.44168391 253.47997428 22.44168391 252.00140883 22.44259473 C250.03869788 22.44380646 248.07598694 22.4450206 246.113276 22.44623711 C227.70070435 22.45711735 209.28815102 22.45494781 190.87557834 22.44885226 C174.02492532 22.44368217 157.1743301 22.45494013 140.32368851 22.47395048 C123.02752597 22.49331411 105.73139078 22.50158751 88.43521732 22.49782723 C78.72228146 22.49591301 69.00939481 22.49842428 59.29646778 22.51254177 C51.02819298 22.52443773 42.75999767 22.52588053 34.49172182 22.5137516 C30.27226186 22.50785046 26.05294743 22.5067975 21.83349705 22.51875401 C17.97145648 22.52957068 14.10968368 22.52656003 10.24765586 22.51249232 C8.84999598 22.50983373 7.4523154 22.51224826 6.05467577 22.52022818 C4.15524675 22.53032099 2.25574237 22.52012923 0.35631943 22.50895119 C-1.22646629 22.50903371 -1.22646629 22.50903371 -2.84122747 22.5091179 C-6.3839832 22.06301019 -8.77006764 20.97145295 -11.81846333 19.13422108 C-14.22261802 15.72187248 -14.81846333 13.75232417 -14.81846333 9.57172108 C-13.6266228 5.47476926 -12.1076715 3.79691341 -8.81846333 1.13422108 C-5.6261747 0.07012487 -3.3552118 0.00566763 0 0 Z " fill="#00CBFF" transform="translate(134.8184633255005,244.86577892303467)"/>
<path d="M0 0 C1.4650658 -0.00576102 2.93012438 -0.01370201 4.39516783 -0.02363622 C8.42197306 -0.044536 12.44818688 -0.0341805 16.47499442 -0.01870513 C20.81727875 -0.00740822 25.15946024 -0.02484606 29.50172424 -0.03860474 C38.00855479 -0.06085948 46.515165 -0.05602603 55.02200425 -0.04154153 C61.93452333 -0.03025807 68.84698058 -0.02871452 75.75950623 -0.03416061 C76.7426384 -0.03492678 77.72577058 -0.03569294 78.73869464 -0.03648233 C80.73579333 -0.03808092 82.732892 -0.03970199 84.72999066 -0.04134528 C103.46495335 -0.05560934 122.19979379 -0.03919977 140.93473643 -0.01234345 C157.01665147 0.00999592 173.09838607 0.00611597 189.18029785 -0.01693726 C207.84736558 -0.04368367 226.51432611 -0.05423598 245.18141031 -0.03887594 C247.17123825 -0.03728316 249.1610662 -0.03571131 251.15089417 -0.03416061 C252.12997481 -0.03338924 253.10905546 -0.03261786 254.11780521 -0.03182311 C261.02350414 -0.02750263 267.92913519 -0.03480014 274.83482361 -0.04655838 C283.24848082 -0.06056906 291.66190475 -0.05681367 300.07553518 -0.03015466 C304.36988504 -0.01699709 308.66384569 -0.01189687 312.95819283 -0.02840042 C316.88759265 -0.04327327 320.81624164 -0.03515679 324.7455731 -0.00851266 C326.16877961 -0.00291624 327.59204924 -0.00579423 329.01521534 -0.0178916 C340.99124242 -0.11190172 340.99124242 -0.11190172 344.28221893 3.04569435 C346.80585079 6.95144511 346.9552002 8.97100817 346.9552002 13.63491821 C345.24534016 17.90956831 343.00560535 19.60183264 338.9552002 21.63491821 C336.08933878 22.0109657 336.08933878 22.0109657 332.87223053 22.01244164 C331.02791514 22.0241765 331.02791514 22.0241765 329.14634085 22.03614843 C327.78497785 22.0296625 326.42361619 22.02289254 325.06225586 22.01586914 C323.61369553 22.01932579 322.16513783 22.02409041 320.71658564 22.03005087 C316.73551155 22.04258956 312.75465285 22.03637751 308.77357793 22.02709222 C304.48039992 22.02031379 300.18725935 22.03077696 295.89408875 22.03903198 C287.48355693 22.05238441 279.07310534 22.04948486 270.66257036 22.04079406 C263.82824759 22.03402386 256.99394735 22.03309792 250.15962219 22.03636551 C249.18759146 22.03682521 248.21556073 22.03728491 247.21407452 22.03775854 C245.23952384 22.0387177 243.26497317 22.03969033 241.2904225 22.04067631 C222.76723047 22.04923463 204.24408294 22.03938915 185.72089821 22.02327521 C169.82094923 22.00987163 153.92106596 22.0121996 138.02111816 22.02603149 C119.56502052 22.04207951 101.1089619 22.04841061 82.65285826 22.0391947 C80.68549824 22.03823904 78.71813822 22.03729593 76.7507782 22.03636551 C75.29874189 22.03567127 75.29874189 22.03567127 73.81737152 22.034963 C66.98983586 22.03237078 60.16232492 22.03674912 53.33479309 22.04380417 C45.01634529 22.05221072 36.69798243 22.04995685 28.37954438 22.03396194 C24.13388399 22.02606782 19.88836532 22.02300699 15.64270592 22.03290939 C11.75788988 22.04183326 7.87334724 22.03696177 3.98855609 22.02097674 C2.5814954 22.01761911 1.17441172 22.019345 -0.23263425 22.0266041 C-2.14235037 22.03570254 -4.052131 22.02459252 -5.96183014 22.01244164 C-7.02347586 22.01195458 -8.08512158 22.01146752 -9.17893839 22.0109657 C-12.50327882 21.57475833 -14.35877282 20.61405108 -17.0447998 18.63491821 C-19.37597792 15.21585698 -20.0447998 13.22447933 -20.0447998 9.07241821 C-19.13170622 5.93365903 -18.37616803 3.91056416 -15.98124599 1.6694653 C-11.22977031 -0.86901233 -5.25687526 -0.04468512 0 0 Z " fill="#00CCFF" transform="translate(140.0447998046875,394.3650817871094)"/>
<path d="M0 0 C1.2295436 -0.00782324 2.45908719 -0.01564648 3.72588968 -0.02370679 C5.08725268 -0.01722087 6.44861434 -0.01045091 7.80997467 -0.00342751 C9.258535 -0.00688416 10.7070927 -0.01164878 12.15564489 -0.01760924 C16.13671898 -0.03014793 20.11757768 -0.02393588 24.0986526 -0.01465058 C28.39183061 -0.00787215 32.68497118 -0.01833533 36.97814178 -0.02659035 C45.3886736 -0.03994277 53.79912519 -0.03704323 62.20966017 -0.02835242 C69.04398294 -0.02158222 75.87828318 -0.02065628 82.71260834 -0.02392387 C83.68463907 -0.02438357 84.6566698 -0.02484327 85.65815601 -0.0253169 C87.63270669 -0.02627606 89.60725736 -0.0272487 91.58180803 -0.02823468 C110.10500006 -0.03679299 128.62814759 -0.02694751 147.15133232 -0.01083358 C163.0512813 0.00257 178.95116457 0.00024203 194.85111237 -0.01358986 C213.30721001 -0.02963787 231.76326863 -0.03596898 250.21937227 -0.02675307 C252.18673229 -0.0257974 254.15409231 -0.02485429 256.12145233 -0.02392387 C257.57348864 -0.02322963 257.57348864 -0.02322963 259.05485901 -0.02252137 C265.88239467 -0.01992914 272.70990561 -0.02430749 279.53743744 -0.03136253 C287.85588524 -0.03976908 296.1742481 -0.03751521 304.49268615 -0.0215203 C308.73834654 -0.01362618 312.98386521 -0.01056536 317.22952461 -0.02046776 C321.11434065 -0.02939163 324.99888329 -0.02452013 328.88367444 -0.0085351 C330.29073513 -0.00517748 331.69781881 -0.00690337 333.10486478 -0.01416247 C335.0145809 -0.0232609 336.92436153 -0.01215088 338.83406067 0 C339.89570639 0.00048706 340.95735211 0.00097411 342.05116892 0.00147593 C346.36818244 0.56793811 348.98688875 2.29235824 351.79203033 5.56502342 C353.28230527 9.29071076 353.3793534 12.66547255 351.91703033 16.37752342 C350.27672061 18.9161825 349.49786005 19.9391847 346.91703033 21.37752342 C342.25400354 22.15541061 337.5859617 22.05250986 332.87223053 22.01244164 C331.40716473 22.01820265 329.94210615 22.02614365 328.4770627 22.03607786 C324.45025747 22.05697764 320.42404365 22.04662214 316.39723611 22.03114676 C312.05495178 22.01984985 307.71277029 22.03728769 303.37050629 22.05104637 C294.86367574 22.07330111 286.35706553 22.06846766 277.85022628 22.05398317 C270.9377072 22.0426997 264.02524995 22.04115615 257.1127243 22.04660225 C256.12959213 22.04736841 255.14645995 22.04813458 254.13353589 22.04892396 C252.1364372 22.05052256 250.13933852 22.05214362 248.14223987 22.05378692 C229.40727718 22.06805097 210.67243674 22.0516414 191.9374941 22.02478509 C175.85557906 22.00244572 159.77384446 22.00632566 143.69193268 22.02937889 C125.02486495 22.05612531 106.35790442 22.06667761 87.69082022 22.05131757 C85.70099228 22.0497248 83.71116433 22.04815294 81.72133636 22.04660225 C80.74225572 22.04583087 79.76317507 22.04505949 78.75442532 22.04426474 C71.84872638 22.03994426 64.94309534 22.04724178 58.03740692 22.05900002 C49.62374971 22.07301069 41.21032578 22.0692553 32.79669535 22.0425963 C28.50234549 22.02943873 24.20838484 22.0243385 19.9140377 22.04084206 C15.98463788 22.0557149 12.05598889 22.04759843 8.12665743 22.0209543 C6.70345092 22.01535788 5.28018129 22.01823587 3.85701519 22.03033324 C-8.11580732 22.1243182 -8.11580732 22.1243182 -11.39826965 19.05268478 C-13.5390634 15.65328509 -14.08296967 13.39768174 -14.08296967 9.37752342 C-11.60033665 2.2054725 -7.36865861 0.00338056 0 0 Z " fill="#00CCFF" transform="translate(134.08296966552734,95.62247657775879)"/>
<path d="M0 0 C4.91304403 4.6386453 6.99186888 9.57726027 7.4375 16.25 C7.26829623 22.51053963 4.76035567 28.36044764 0.21484375 32.70703125 C-6.22998552 37.45513264 -12.25273991 37.69803993 -20 37 C-25.93705524 35.30231264 -29.57808344 32.03223024 -33 27 C-35.68940098 21.36506462 -36.11750983 14.78748841 -34.34765625 8.7890625 C-31.50879531 2.42903928 -27.03368489 -1.68349524 -20.6875 -4.4375 C-12.81152908 -5.63891929 -6.47513481 -4.69764682 0 0 Z " fill="#00CCFF" transform="translate(60,389)"/>
<path d="M0 0 C5.37686615 3.1206029 8.69941245 8.78573736 10.625 14.5625 C11.24442887 20.6019315 10.83301772 26.30135094 7.625 31.5625 C3.40032551 36.39613658 -0.89387479 39.66855169 -7.375 40.5625 C-14.69944847 40.63361115 -20.44257917 39.36941804 -25.84375 34.140625 C-30.59101361 28.78615326 -31.86737903 24.19465045 -31.6796875 17.1875 C-31.05792584 11.83078419 -29.36502247 7.46843701 -25.43359375 3.703125 C-18.07483793 -1.98873033 -8.85201026 -3.76681288 0 0 Z " fill="#00CCFF" transform="translate(56.375,87.4375)"/>
<path d="M0 0 C4.50503185 3.30626801 8.5369245 7.81736909 9.8203125 13.3359375 C10.5814943 20.18657369 9.96102577 25.69391299 5.8203125 31.3359375 C0.86874985 36.61603985 -3.69962371 39.35520268 -10.9921875 39.7109375 C-17.07032773 39.5574035 -21.4898755 37.85838342 -25.9375 33.6875 C-30.97740283 28.11195533 -32.67830814 23.41736032 -32.48828125 15.89453125 C-31.77686297 9.99606326 -29.09548315 5.89601261 -24.7421875 1.9609375 C-17.28934929 -3.82523225 -8.35089852 -4.76711211 0 0 Z " fill="#00CBFF" transform="translate(57.1796875,237.6640625)"/>
</svg>
